<svg width="48" height="48" viewBox="0 0 48 48" fill="none" xmlns="http://www.w3.org/2000/svg">
<path d="M34.3358 2.61818C34.9056 3.10635 35.1577 3.74331 35.4544 4.36506C35.5112 4.48196 35.5679 4.59886 35.6264 4.71931C35.8132 5.10493 35.9984 5.49107 36.1834 5.87727C36.3126 6.14573 36.4419 6.41418 36.5712 6.68262C36.8417 7.24482 37.1114 7.8073 37.3805 8.36996C37.7258 9.09162 38.0739 9.81233 38.4227 10.5328C38.6903 11.0867 38.9562 11.6411 39.2215 12.1957C39.3492 12.4617 39.4774 12.7275 39.6063 12.9932C39.786 13.3641 39.9633 13.7357 40.1399 14.1077C40.1937 14.2176 40.2476 14.3274 40.3031 14.4407C40.5539 14.9752 40.707 15.3099 40.4672 15.8545C40.1168 16.1455 40.1168 16.1455 39.4893 16.1864C38.6757 16.1693 37.9614 15.9927 37.1934 15.7818C36.0541 15.4653 36.0541 15.4653 34.8613 15.4182C34.7678 15.5697 34.6743 15.7212 34.578 15.8773C30.153 22.978 23.6096 28.3944 14.2911 30.8668C8.29727 32.3926 8.29727 32.3926 6.31478 31.6102C4.72119 30.8982 4.72119 30.8982 4.20438 30.2545C4.18248 29.9091 4.18248 29.9091 4.37956 29.5273C5.2431 28.9806 6.25241 28.5838 7.21533 28.1727C8.52798 27.6029 9.79052 26.9938 11.0365 26.3273C11.1426 26.2708 11.2488 26.2144 11.3581 26.1562C13.6578 24.9288 15.7085 23.5206 17.6934 21.9636C17.8454 21.8453 17.9974 21.727 18.154 21.6051C20.7927 19.4896 24.2125 15.9118 24.7007 12.8C24.5357 12.7848 24.3706 12.7696 24.2005 12.754C23.3319 12.6506 22.506 12.4383 21.6679 12.2273C21.5092 12.1887 21.3506 12.1502 21.1872 12.1105C21.0357 12.0727 20.8843 12.035 20.7283 11.996C20.5226 11.9449 20.5226 11.9449 20.3127 11.8927C19.9708 11.7818 19.9708 11.7818 19.6204 11.4909C19.5342 11.15 19.5342 11.15 19.6204 10.7636C19.9613 10.5052 20.2657 10.3141 20.6496 10.1091C20.8761 9.98182 21.1023 9.85435 21.3285 9.72671C21.4495 9.65937 21.5705 9.59203 21.6953 9.52266C22.3505 9.15217 22.9876 8.76091 23.6277 8.37273C24.6185 7.77619 25.6166 7.19058 26.6277 6.61818C28.6158 5.49212 30.5921 4.34046 32.4738 3.09375C33.1341 2.66645 33.4982 2.53125 34.3358 2.61818Z" fill="#1967D2"/>
<path d="M34.6861 19.3455C36.0778 19.7048 37.4016 20.1727 38.7372 20.6545C38.9559 20.733 39.1747 20.8114 39.3935 20.8898C39.8073 21.0381 40.2209 21.1869 40.6342 21.3361C41.0551 21.4869 41.4774 21.633 41.9015 21.7773C42.4976 22.0027 42.8477 22.2783 43.2701 22.6909C43.4778 23.2084 43.477 23.6822 43.4808 24.221C43.4818 24.3281 43.4828 24.4352 43.4839 24.5455C43.4855 24.7721 43.4867 24.9986 43.4873 25.2252C43.489 25.57 43.4945 25.9146 43.5 26.2594C43.5011 26.4799 43.5021 26.7005 43.5027 26.921C43.506 27.0745 43.506 27.0745 43.5093 27.231C43.5056 27.9109 43.3613 28.3727 42.9197 28.9455C42.6047 29.1852 42.6047 29.1852 42.2429 29.3716C42.103 29.4437 41.9631 29.5159 41.8189 29.5902C41.0046 29.9803 40.1802 30.3529 39.3484 30.7166C38.9135 30.9067 38.4796 31.0984 38.0457 31.29C37.825 31.3875 37.6042 31.4848 37.3834 31.5821C36.4074 32.0124 35.4364 32.4502 34.4672 32.8909C33.493 33.3337 32.5183 33.7755 31.5404 34.2125C29.8152 34.9838 28.0974 35.7629 26.3978 36.5727C26.2452 36.6451 26.0926 36.7176 25.9354 36.7922C25.3181 37.0855 24.7022 37.3798 24.0931 37.6847C23.9287 37.7647 23.7643 37.8448 23.5949 37.9273C23.4655 37.9925 23.3361 38.0578 23.2028 38.125C22.3038 38.3964 21.5936 38.3261 20.727 38.046C20.5062 37.9513 20.2871 37.854 20.0693 37.7545C19.9493 37.7022 19.8292 37.6499 19.7055 37.596C19.3254 37.4297 18.9474 37.2603 18.5693 37.0909C18.3273 36.9848 18.085 36.8789 17.8426 36.7733C17.3511 36.5589 16.8605 36.3431 16.3707 36.1261C15.821 35.8829 15.2703 35.6414 14.7187 35.4011C14.5721 35.3373 14.4255 35.2734 14.2745 35.2076C13.9942 35.0856 13.7138 34.9636 13.4334 34.8418C12.5098 34.4393 11.5959 34.0237 10.6861 33.6C10.6861 33.456 10.6861 33.312 10.6861 33.1636C10.8111 33.1345 10.936 33.1053 11.0647 33.0753C20.9596 30.749 28.6197 26.6925 34.5109 19.6364C34.5688 19.5404 34.6266 19.4444 34.6861 19.3455Z" fill="#F47C1A"/>
<path d="M42.9197 30.9818C43.2022 31.1414 43.2022 31.1414 43.4453 31.4182C43.5452 32.0527 43.528 32.6903 43.5234 33.3297C43.5219 33.6429 43.5269 33.9558 43.5325 34.269C43.5328 34.4697 43.5327 34.6704 43.5322 34.871C43.5325 35.0526 43.5328 35.2341 43.5331 35.4212C43.4281 36.0263 43.2112 36.3311 42.7445 36.8C42.3696 37.0316 42.3696 37.0316 41.9624 37.2057C41.8098 37.2726 41.6572 37.3395 41.5 37.4084C41.3362 37.4776 41.1724 37.5468 41.0036 37.6182C40.652 37.7721 40.3005 37.9262 39.9491 38.0807C39.7713 38.1583 39.5934 38.2358 39.4102 38.3158C38.6363 38.6578 37.8762 39.0183 37.1168 39.3818C36.9686 39.4525 36.8204 39.5231 36.6678 39.5959C36.353 39.746 36.0383 39.8962 35.7237 40.0464C34.7509 40.5109 33.777 40.9737 32.8029 41.4364C32.6997 41.4854 32.5965 41.5345 32.4901 41.585C30.8004 42.3879 29.1042 43.1809 27.4 43.9625C26.4515 44.3999 25.5441 44.8588 24.646 45.3636C23.5906 45.902 22.7631 46.0578 21.5474 45.8182C20.5587 45.5074 19.6602 45.0905 18.7445 44.6545C18.5823 44.5781 18.4201 44.5016 18.253 44.4228C17.2021 43.9263 16.1558 43.4234 15.1112 42.9179C13.9819 42.3717 12.8493 41.8303 11.7153 41.2909C11.5632 41.2184 11.5632 41.2184 11.4081 41.1445C9.75789 40.3586 8.09111 39.6003 6.40263 38.8724C4.62592 38.0921 4.62592 38.0921 4.20438 37.5273C4.0873 36.8401 4.0983 36.1654 4.11679 35.4727C4.11634 35.2854 4.11588 35.0981 4.11542 34.9051C4.13267 33.5372 4.13267 33.5372 4.4432 33.1792C4.72993 33.0182 4.72993 33.0182 5.19525 33.0244C5.94779 33.2033 6.58558 33.4796 7.27007 33.7909C7.41478 33.8554 7.55949 33.92 7.70858 33.9865C8.17647 34.1957 8.64306 34.4067 9.10949 34.6182C9.41855 34.7576 9.72763 34.897 10.0367 35.0364C10.6773 35.3257 11.3173 35.616 11.9569 35.9068C13.1737 36.4597 14.3941 37.007 15.6144 37.5546C16.4761 37.9417 17.3363 38.3308 18.1937 38.7244C18.355 38.7985 18.5163 38.8725 18.6825 38.9488C18.9864 39.0886 19.2901 39.2286 19.5935 39.3691C19.7282 39.431 19.8628 39.493 20.0016 39.5568C20.1189 39.6111 20.2361 39.6653 20.357 39.7212C21.2137 40.0844 22.0111 40.1303 22.9489 40C23.877 39.6904 24.7199 39.2608 25.5766 38.8364C25.9302 38.6634 26.2837 38.4905 26.6373 38.3176C27.3416 37.9723 28.0449 37.6258 28.7474 37.2779C30.2177 36.55 31.6985 35.838 33.1829 35.13C34.3001 34.5969 35.4137 34.059 36.5245 33.5166C37.9273 32.8327 39.3327 32.1531 40.7628 31.5091C40.8813 31.4545 40.9999 31.3998 41.1221 31.3435C41.7371 31.0717 42.2197 30.8739 42.9197 30.9818Z" fill="#3C3F48"/>
<path d="M32.7591 21.6727C32.8169 21.8167 32.8747 21.9607 32.9343 22.1091C32.8765 22.2051 32.8187 22.3011 32.7591 22.4C32.6435 22.4 32.5279 22.4 32.4088 22.4C32.3871 22.49 32.3654 22.58 32.3431 22.6727C32.2336 22.9818 32.2336 22.9818 31.8832 23.2727C31.7098 23.2247 31.5364 23.1767 31.3577 23.1273C31.8201 22.6473 32.2826 22.1673 32.7591 21.6727Z" fill="#F48138"/>
<path d="M21.7226 12.0727C21.943 12.0697 22.1634 12.0667 22.3905 12.0636C22.5145 12.0619 22.6385 12.0603 22.7662 12.0585C23.1241 12.0727 23.1241 12.0727 23.6496 12.2182C23.6496 12.3142 23.6496 12.4102 23.6496 12.5091C23.9387 12.5571 24.2277 12.6051 24.5255 12.6545C23.8359 12.8454 23.5131 12.7039 22.8285 12.5182C22.6218 12.4629 22.4152 12.4076 22.2023 12.3506C22.044 12.3069 21.8857 12.2632 21.7226 12.2182C21.7226 12.1702 21.7226 12.1222 21.7226 12.0727Z" fill="#6B6ADB"/>
<path d="M29.6058 24.7273C29.6636 24.8713 29.7215 25.0153 29.781 25.1636C29.6142 25.31 29.4461 25.4552 29.2774 25.6C29.1839 25.681 29.0904 25.762 28.9941 25.8455C28.7299 26.0364 28.7299 26.0364 28.3796 26.0364C28.652 25.4812 29.0866 25.1357 29.6058 24.7273Z" fill="#F37626"/>
<path d="M39.7664 14.1091C39.882 14.1091 39.9977 14.1091 40.1168 14.1091C40.2104 14.2901 40.3011 14.4721 40.3905 14.6545C40.4413 14.7558 40.4921 14.857 40.5445 14.9614C40.6561 15.3164 40.6077 15.5113 40.4671 15.8545C40.4093 15.8545 40.3515 15.8545 40.292 15.8545C40.2034 15.6457 40.116 15.4366 40.0292 15.2273C39.9804 15.1108 39.9316 14.9944 39.8814 14.8744C39.7664 14.5455 39.7664 14.5455 39.7664 14.1091Z" fill="#5450D4"/>
<path d="M33.8102 20.5091C33.9258 20.5091 34.0415 20.5091 34.1606 20.5091C34.0656 21.0612 33.775 21.305 33.2847 21.6727C33.169 21.6247 33.0534 21.5767 32.9343 21.5273C33.0716 21.3568 33.2106 21.1873 33.3504 21.0182C33.4276 20.9237 33.5048 20.8292 33.5844 20.7318C33.6962 20.6216 33.6962 20.6216 33.8102 20.5091Z" fill="#F37B2D"/>
<path d="M13.0292 25.4909C13.1231 25.5269 13.2171 25.5629 13.3139 25.6C12.3652 26.1908 12.3652 26.1908 11.8467 26.1455C11.7528 26.1095 11.6588 26.0735 11.562 26.0364C12.5107 25.4456 12.5107 25.4456 13.0292 25.4909Z" fill="#4D4DD1"/>
<path d="M33.2847 2.61818C33.7883 2.6 33.7883 2.6 34.3358 2.61818C34.4514 2.71418 34.567 2.81018 34.6861 2.90909C34.6283 3.05309 34.5705 3.19709 34.5109 3.34545C34.5109 3.24945 34.5109 3.15345 34.5109 3.05455C34.0485 3.05455 33.586 3.05455 33.1095 3.05455C33.1673 2.91055 33.2251 2.76655 33.2847 2.61818Z" fill="#514CD1"/>
<path d="M4.20438 29.6727C4.37781 29.6727 4.55124 29.6727 4.72993 29.6727C4.78774 29.9607 4.84555 30.2487 4.90511 30.5455C4.73168 30.5455 4.55825 30.5455 4.37956 30.5455C4.32175 30.2575 4.26394 29.9695 4.20438 29.6727Z" fill="#5657D5"/>
</svg>
