<svg width="195" height="48" viewBox="0 0 195 48" fill="none" xmlns="http://www.w3.org/2000/svg">
<path d="M34.3358 2.61818C34.9056 3.10635 35.1577 3.74331 35.4544 4.36506C35.5112 4.48196 35.5679 4.59886 35.6264 4.71931C35.8132 5.10493 35.9984 5.49107 36.1834 5.87727C36.3126 6.14573 36.4419 6.41418 36.5712 6.68262C36.8417 7.24482 37.1114 7.8073 37.3805 8.36996C37.7258 9.09162 38.0739 9.81233 38.4227 10.5328C38.6903 11.0867 38.9562 11.6411 39.2215 12.1957C39.3492 12.4617 39.4774 12.7275 39.6063 12.9932C39.786 13.3641 39.9633 13.7357 40.1399 14.1077C40.1937 14.2176 40.2476 14.3274 40.3031 14.4407C40.5539 14.9752 40.707 15.3099 40.4671 15.8545C40.1168 16.1455 40.1168 16.1455 39.4893 16.1864C38.6757 16.1693 37.9614 15.9927 37.1934 15.7818C36.054 15.4653 36.054 15.4653 34.8613 15.4182C34.7678 15.5697 34.6743 15.7212 34.578 15.8773C30.153 22.978 23.6096 28.3944 14.2911 30.8668C8.29726 32.3926 8.29726 32.3926 6.31478 31.6102C4.72118 30.8982 4.72118 30.8982 4.20437 30.2545C4.18248 29.9091 4.18248 29.9091 4.37956 29.5273C5.24309 28.9806 6.2524 28.5838 7.21532 28.1727C8.52798 27.6029 9.79051 26.9938 11.0365 26.3273C11.1426 26.2708 11.2488 26.2144 11.3581 26.1562C13.6578 24.9288 15.7085 23.5206 17.6934 21.9636C17.8454 21.8453 17.9974 21.727 18.154 21.6051C20.7927 19.4896 24.2125 15.9118 24.7007 12.8C24.5356 12.7848 24.3706 12.7696 24.2005 12.754C23.3319 12.6506 22.5059 12.4383 21.6679 12.2273C21.5092 12.1887 21.3506 12.1502 21.1872 12.1105C21.0357 12.0727 20.8843 12.035 20.7283 11.996C20.5226 11.9449 20.5226 11.9449 20.3127 11.8927C19.9708 11.7818 19.9708 11.7818 19.6204 11.4909C19.5342 11.15 19.5342 11.15 19.6204 10.7636C19.9613 10.5052 20.2657 10.3141 20.6496 10.1091C20.8761 9.98182 21.1023 9.85435 21.3285 9.72671C21.4495 9.65937 21.5705 9.59203 21.6952 9.52266C22.3505 9.15217 22.9876 8.76091 23.6277 8.37273C24.6184 7.77619 25.6166 7.19058 26.6277 6.61818C28.6158 5.49212 30.5921 4.34046 32.4738 3.09375C33.1341 2.66645 33.4982 2.53125 34.3358 2.61818Z" fill="#1967D2"/>
<path d="M34.6861 19.3455C36.0778 19.7049 37.4016 20.1727 38.7372 20.6545C38.9559 20.733 39.1747 20.8114 39.3935 20.8898C39.8073 21.0381 40.2209 21.1869 40.6342 21.3361C41.0551 21.4869 41.4774 21.633 41.9015 21.7773C42.4975 22.0027 42.8477 22.2784 43.2701 22.6909C43.4778 23.2084 43.4769 23.6822 43.4808 24.221C43.4818 24.3281 43.4828 24.4352 43.4839 24.5455C43.4855 24.7721 43.4867 24.9986 43.4873 25.2252C43.489 25.57 43.4945 25.9146 43.5 26.2594C43.5011 26.4799 43.5021 26.7005 43.5027 26.921C43.506 27.0745 43.506 27.0745 43.5093 27.231C43.5056 27.911 43.3613 28.3727 42.9197 28.9455C42.6047 29.1852 42.6047 29.1852 42.2429 29.3716C42.103 29.4437 41.9631 29.5159 41.8189 29.5902C41.0046 29.9803 40.1802 30.3529 39.3484 30.7166C38.9135 30.9067 38.4796 31.0984 38.0457 31.29C37.825 31.3875 37.6042 31.4848 37.3834 31.5821C36.4074 32.0124 35.4364 32.4502 34.4671 32.8909C33.493 33.3337 32.5183 33.7755 31.5404 34.2125C29.8151 34.9838 28.0974 35.763 26.3978 36.5727C26.2452 36.6452 26.0926 36.7176 25.9354 36.7922C25.3181 37.0855 24.7022 37.3798 24.0931 37.6847C23.9287 37.7647 23.7643 37.8448 23.5949 37.9273C23.4655 37.9925 23.3361 38.0578 23.2028 38.125C22.3038 38.3964 21.5936 38.3261 20.727 38.046C20.5062 37.9513 20.2871 37.854 20.0693 37.7545C19.9493 37.7022 19.8292 37.6499 19.7055 37.596C19.3254 37.4297 18.9474 37.2603 18.5693 37.0909C18.3273 36.9848 18.085 36.8789 17.8426 36.7733C17.3511 36.5589 16.8605 36.3431 16.3707 36.1261C15.821 35.8829 15.2703 35.6414 14.7187 35.4011C14.5721 35.3373 14.4255 35.2734 14.2745 35.2076C13.9942 35.0856 13.7138 34.9636 13.4334 34.8418C12.5098 34.4393 11.5959 34.0237 10.6861 33.6C10.6861 33.456 10.6861 33.312 10.6861 33.1636C10.8111 33.1345 10.936 33.1053 11.0647 33.0753C20.9596 30.749 28.6197 26.6925 34.5109 19.6364C34.5688 19.5404 34.6266 19.4444 34.6861 19.3455Z" fill="#F47C1A"/>
<path d="M42.9197 30.9818C43.2022 31.1414 43.2022 31.1414 43.4453 31.4182C43.5452 32.0528 43.528 32.6903 43.5234 33.3297C43.5219 33.6429 43.5269 33.9558 43.5325 34.269C43.5328 34.4697 43.5327 34.6704 43.5322 34.871C43.5325 35.0526 43.5328 35.2341 43.5331 35.4212C43.4281 36.0263 43.2112 36.3311 42.7445 36.8C42.3696 37.0316 42.3696 37.0316 41.9624 37.2057C41.8098 37.2726 41.6572 37.3395 41.5 37.4084C41.3362 37.4776 41.1724 37.5469 41.0037 37.6182C40.652 37.7721 40.3005 37.9262 39.9491 38.0807C39.7713 38.1583 39.5934 38.2358 39.4102 38.3158C38.6364 38.6578 37.8762 39.0183 37.1168 39.3818C36.9686 39.4525 36.8204 39.5231 36.6678 39.5959C36.353 39.746 36.0383 39.8962 35.7237 40.0465C34.7509 40.5109 33.777 40.9737 32.8029 41.4364C32.6997 41.4854 32.5965 41.5345 32.4901 41.585C30.8004 42.388 29.1042 43.1809 27.4 43.9625C26.4515 44.3999 25.5441 44.8588 24.646 45.3636C23.5907 45.902 22.7631 46.0578 21.5475 45.8182C20.5587 45.5074 19.6602 45.0906 18.7445 44.6546C18.5823 44.5781 18.4201 44.5016 18.253 44.4228C17.2021 43.9263 16.1558 43.4234 15.1112 42.9179C13.9819 42.3717 12.8493 41.8303 11.7153 41.2909C11.5633 41.2184 11.5633 41.2184 11.4081 41.1445C9.7579 40.3586 8.09112 39.6003 6.40264 38.8724C4.62593 38.0921 4.62593 38.0921 4.20439 37.5273C4.0873 36.8401 4.09831 36.1654 4.1168 35.4727C4.11634 35.2854 4.11589 35.0981 4.11543 34.9051C4.13268 33.5372 4.13268 33.5372 4.44321 33.1792C4.72993 33.0182 4.72993 33.0182 5.19526 33.0244C5.94779 33.2033 6.58559 33.4796 7.27008 33.7909C7.41479 33.8555 7.5595 33.92 7.70859 33.9865C8.17648 34.1957 8.64307 34.4068 9.1095 34.6182C9.41856 34.7576 9.72764 34.897 10.0367 35.0364C10.6773 35.3257 11.3173 35.616 11.9569 35.9068C13.1737 36.4598 14.3941 37.007 15.6144 37.5546C16.4761 37.9417 17.3363 38.3308 18.1937 38.7244C18.355 38.7985 18.5163 38.8725 18.6825 38.9488C18.9864 39.0886 19.2901 39.2286 19.5935 39.3691C19.7282 39.431 19.8628 39.493 20.0016 39.5568C20.1189 39.6111 20.2361 39.6653 20.357 39.7212C21.2137 40.0844 22.0111 40.1303 22.9489 40C23.877 39.6904 24.7199 39.2608 25.5766 38.8364C25.9302 38.6634 26.2837 38.4905 26.6373 38.3176C27.3416 37.9724 28.045 37.6258 28.7474 37.278C30.2177 36.5501 31.6985 35.838 33.1829 35.13C34.3002 34.5969 35.4137 34.059 36.5245 33.5166C37.9273 32.8327 39.3327 32.1531 40.7628 31.5091C40.8813 31.4545 40.9999 31.3998 41.1221 31.3435C41.7371 31.0717 42.2197 30.8739 42.9197 30.9818Z" fill="#3C3F48"/>
<path d="M32.7591 21.6727C32.8169 21.8167 32.8747 21.9607 32.9343 22.1091C32.8765 22.2051 32.8187 22.3011 32.7591 22.4C32.6435 22.4 32.5279 22.4 32.4088 22.4C32.3871 22.49 32.3654 22.58 32.3431 22.6727C32.2336 22.9818 32.2336 22.9818 31.8832 23.2727C31.7098 23.2247 31.5364 23.1767 31.3577 23.1273C31.8201 22.6473 32.2826 22.1673 32.7591 21.6727Z" fill="#F48138"/>
<path d="M21.7226 12.0727C21.943 12.0697 22.1634 12.0667 22.3905 12.0636C22.5145 12.0619 22.6385 12.0603 22.7662 12.0585C23.1241 12.0727 23.1241 12.0727 23.6496 12.2182C23.6496 12.3142 23.6496 12.4102 23.6496 12.5091C23.9387 12.5571 24.2277 12.6051 24.5255 12.6545C23.8359 12.8454 23.5131 12.7039 22.8285 12.5182C22.6218 12.4629 22.4152 12.4076 22.2023 12.3506C22.044 12.3069 21.8857 12.2632 21.7226 12.2182C21.7226 12.1702 21.7226 12.1222 21.7226 12.0727Z" fill="#6B6ADB"/>
<path d="M29.6058 24.7273C29.6636 24.8713 29.7215 25.0153 29.781 25.1636C29.6142 25.3099 29.4461 25.4552 29.2774 25.6C29.1839 25.681 29.0904 25.762 28.9941 25.8454C28.7299 26.0364 28.7299 26.0364 28.3796 26.0364C28.652 25.4812 29.0866 25.1357 29.6058 24.7273Z" fill="#F37626"/>
<path d="M39.7664 14.1091C39.882 14.1091 39.9977 14.1091 40.1168 14.1091C40.2104 14.2901 40.3011 14.4721 40.3905 14.6545C40.4413 14.7558 40.4921 14.857 40.5445 14.9614C40.6561 15.3164 40.6077 15.5113 40.4671 15.8545C40.4093 15.8545 40.3515 15.8545 40.292 15.8545C40.2034 15.6457 40.116 15.4366 40.0292 15.2273C39.9804 15.1108 39.9316 14.9944 39.8814 14.8744C39.7664 14.5454 39.7664 14.5454 39.7664 14.1091Z" fill="#5450D4"/>
<path d="M33.8102 20.5091C33.9258 20.5091 34.0414 20.5091 34.1606 20.5091C34.0656 21.0612 33.7749 21.305 33.2847 21.6727C33.169 21.6247 33.0534 21.5767 32.9343 21.5273C33.0715 21.3568 33.2106 21.1873 33.3504 21.0182C33.4276 20.9237 33.5048 20.8292 33.5844 20.7318C33.6962 20.6216 33.6962 20.6216 33.8102 20.5091Z" fill="#F37B2D"/>
<path d="M13.0292 25.4909C13.1231 25.5269 13.2171 25.5629 13.3139 25.6C12.3652 26.1908 12.3652 26.1908 11.8467 26.1455C11.7528 26.1095 11.6588 26.0735 11.562 26.0364C12.5107 25.4456 12.5107 25.4456 13.0292 25.4909Z" fill="#4D4DD1"/>
<path d="M33.2847 2.61819C33.7883 2.60001 33.7883 2.60001 34.3358 2.61819C34.4514 2.71419 34.567 2.81019 34.6861 2.9091C34.6283 3.0531 34.5705 3.1971 34.511 3.34546C34.511 3.24946 34.511 3.15346 34.511 3.05455C34.0485 3.05455 33.586 3.05455 33.1095 3.05455C33.1673 2.91055 33.2251 2.76655 33.2847 2.61819Z" fill="#514CD1"/>
<path d="M4.20438 29.6727C4.37781 29.6727 4.55124 29.6727 4.72992 29.6727C4.78773 29.9607 4.84554 30.2487 4.90511 30.5455C4.73168 30.5455 4.55824 30.5455 4.37956 30.5455C4.32175 30.2575 4.26394 29.9695 4.20438 29.6727Z" fill="#5657D5"/>
<path d="M66.1 26.475L69.5 16.5H74.525L66.95 35.025L61.3 24.475L55.675 35.025L48.1 16.5H53.1L56.55 26.475L61.3 15.625L66.1 26.475ZM73.4338 28.25C73.4338 27.0333 73.7171 25.975 74.2838 25.075C74.8505 24.175 75.6338 23.475 76.6338 22.975C77.6338 22.475 78.7588 22.225 80.0088 22.225C81.2588 22.225 82.3755 22.475 83.3588 22.975C84.3588 23.475 85.1421 24.175 85.7088 25.075C86.2921 25.975 86.5838 27.0333 86.5838 28.25C86.5838 29.45 86.2921 30.5 85.7088 31.4C85.1421 32.3 84.3588 33 83.3588 33.5C82.3755 34 81.2588 34.25 80.0088 34.25C78.7588 34.25 77.6338 34 76.6338 33.5C75.6338 33 74.8505 32.3 74.2838 31.4C73.7171 30.5 73.4338 29.45 73.4338 28.25ZM77.3088 28.25C77.3088 28.85 77.4338 29.3667 77.6838 29.8C77.9338 30.2167 78.2588 30.5417 78.6588 30.775C79.0588 31.0083 79.5088 31.125 80.0088 31.125C80.4921 31.125 80.9338 31.0083 81.3338 30.775C81.7505 30.5417 82.0755 30.2167 82.3088 29.8C82.5588 29.3667 82.6838 28.85 82.6838 28.25C82.6838 27.65 82.5588 27.1333 82.3088 26.7C82.0755 26.2667 81.7505 25.9333 81.3338 25.7C80.9338 25.4667 80.4921 25.35 80.0088 25.35C79.5088 25.35 79.0588 25.4667 78.6588 25.7C78.2588 25.9333 77.9338 26.2667 77.6838 26.7C77.4338 27.1333 77.3088 27.65 77.3088 28.25ZM92.5799 22.5V34H88.8549V22.5H92.5799ZM95.9049 26.4C95.7049 26.2 95.4882 26.0417 95.2549 25.925C95.0382 25.8083 94.7632 25.75 94.4299 25.75C94.0632 25.75 93.7382 25.85 93.4549 26.05C93.1715 26.25 92.9549 26.5417 92.8049 26.925C92.6549 27.3083 92.5799 27.775 92.5799 28.325L91.6799 27C91.6799 26.0833 91.8549 25.2667 92.2049 24.55C92.5715 23.8333 93.0465 23.2667 93.6299 22.85C94.2132 22.4333 94.8216 22.225 95.4549 22.225C95.8715 22.225 96.2715 22.3083 96.6549 22.475C97.0382 22.6417 97.3299 22.875 97.5299 23.175L95.9049 26.4ZM99.1082 14.5H102.733V34H99.1082V14.5ZM106.908 22.5H111.433L106.508 27.25L111.933 34H107.483L101.983 27.25L106.908 22.5Z" fill="#1967D2"/>
<path d="M116.737 20.125V16.5H124.562V20.125H116.737ZM116.737 26.975V23.575H124.312V26.975H116.737ZM113.937 16.5H117.987V34H113.937V16.5ZM127.155 18.175C127.155 17.575 127.372 17.0917 127.805 16.725C128.239 16.3417 128.755 16.15 129.355 16.15C129.972 16.15 130.489 16.3417 130.905 16.725C131.339 17.0917 131.555 17.575 131.555 18.175C131.555 18.775 131.339 19.2667 130.905 19.65C130.489 20.0333 129.972 20.225 129.355 20.225C128.755 20.225 128.239 20.0333 127.805 19.65C127.372 19.2667 127.155 18.775 127.155 18.175ZM127.53 22.5H131.18V34H127.53V22.5ZM141.764 27C141.764 26.3167 141.631 25.7917 141.364 25.425C141.114 25.0583 140.689 24.875 140.089 24.875C139.689 24.875 139.339 24.9583 139.039 25.125C138.739 25.2917 138.506 25.5333 138.339 25.85C138.173 26.1667 138.089 26.55 138.089 27V34H134.289V22.5H138.089V24.225C138.423 23.5917 138.873 23.1 139.439 22.75C140.023 22.4 140.739 22.225 141.589 22.225C143.023 22.225 144.064 22.6083 144.714 23.375C145.364 24.1417 145.689 25.2167 145.689 26.6V34H141.764V27ZM157.394 14.5H161.169V34H157.394V14.5ZM147.994 28.25C147.994 26.95 148.253 25.8583 148.769 24.975C149.303 24.0917 149.986 23.4167 150.819 22.95C151.653 22.4833 152.536 22.25 153.469 22.25C154.436 22.25 155.286 22.4917 156.019 22.975C156.769 23.4583 157.361 24.15 157.794 25.05C158.228 25.9333 158.444 27 158.444 28.25C158.444 29.4833 158.228 30.55 157.794 31.45C157.361 32.35 156.769 33.0417 156.019 33.525C155.286 34.0083 154.436 34.25 153.469 34.25C152.536 34.25 151.653 34.0167 150.819 33.55C149.986 33.0833 149.303 32.4083 148.769 31.525C148.253 30.625 147.994 29.5333 147.994 28.25ZM151.969 28.25C151.969 28.85 152.094 29.375 152.344 29.825C152.594 30.2583 152.928 30.6 153.344 30.85C153.761 31.0833 154.219 31.2 154.719 31.2C155.153 31.2 155.569 31.0833 155.969 30.85C156.386 30.6167 156.728 30.2833 156.994 29.85C157.261 29.4 157.394 28.8667 157.394 28.25C157.394 27.6333 157.261 27.1083 156.994 26.675C156.728 26.225 156.386 25.8833 155.969 25.65C155.569 25.4167 155.153 25.3 154.719 25.3C154.219 25.3 153.761 25.425 153.344 25.675C152.928 25.9083 152.594 26.25 152.344 26.7C152.094 27.1333 151.969 27.65 151.969 28.25ZM169.949 34.25C168.616 34.25 167.457 34.0083 166.474 33.525C165.507 33.025 164.757 32.325 164.224 31.425C163.691 30.525 163.424 29.4667 163.424 28.25C163.424 27.0167 163.682 25.95 164.199 25.05C164.716 24.15 165.457 23.4583 166.424 22.975C167.407 22.4917 168.566 22.25 169.899 22.25C171.232 22.25 172.357 22.4833 173.274 22.95C174.191 23.4 174.891 24.0583 175.374 24.925C175.857 25.7917 176.099 26.8417 176.099 28.075C176.099 28.2583 176.099 28.4417 176.099 28.625C176.099 28.7917 176.082 28.9333 176.049 29.05H165.549V26.95H172.649L171.749 28.1C171.832 27.9833 171.899 27.8417 171.949 27.675C172.016 27.4917 172.049 27.3417 172.049 27.225C172.049 26.725 171.957 26.2917 171.774 25.925C171.591 25.5583 171.332 25.275 170.999 25.075C170.666 24.875 170.274 24.775 169.824 24.775C169.257 24.775 168.782 24.9 168.399 25.15C168.016 25.4 167.724 25.7833 167.524 26.3C167.341 26.8 167.241 27.4333 167.224 28.2C167.224 28.9 167.324 29.5 167.524 30C167.724 30.5 168.024 30.8833 168.424 31.15C168.824 31.4 169.316 31.525 169.899 31.525C170.566 31.525 171.132 31.4 171.599 31.15C172.082 30.9 172.466 30.525 172.749 30.025L176.124 30.85C175.524 31.9833 174.707 32.8333 173.674 33.4C172.657 33.9667 171.416 34.25 169.949 34.25ZM182.155 22.5V34H178.43V22.5H182.155ZM185.48 26.4C185.28 26.2 185.063 26.0417 184.83 25.925C184.613 25.8083 184.338 25.75 184.005 25.75C183.638 25.75 183.313 25.85 183.03 26.05C182.747 26.25 182.53 26.5417 182.38 26.925C182.23 27.3083 182.155 27.775 182.155 28.325L181.255 27C181.255 26.0833 181.43 25.2667 181.78 24.55C182.147 23.8333 182.622 23.2667 183.205 22.85C183.788 22.4333 184.397 22.225 185.03 22.225C185.447 22.225 185.847 22.3083 186.23 22.475C186.613 22.6417 186.905 22.875 187.105 23.175L185.48 26.4Z" fill="#4A5568"/>
</svg>
