<?xml version="1.0" encoding="UTF-8"?>
<svg version="1.1" xmlns="http://www.w3.org/2000/svg" width="274" height="330">
<path d="M0 0 C90.42 0 180.84 0 274 0 C274 108.9 274 217.8 274 330 C183.58 330 93.16 330 0 330 C0 221.1 0 112.2 0 0 Z " fill="#FCFCFC" transform="translate(0,0)"/>
<path d="M0 0 C3.25272451 3.35616709 4.69188483 7.73524815 6.38574219 12.00976562 C6.70965439 12.81347092 7.03356659 13.61717621 7.36729431 14.44523621 C8.43356661 17.09638701 9.49070123 19.75106141 10.546875 22.40625 C11.28464189 24.25191469 12.02262096 26.09749457 12.76080322 27.94299316 C14.30494329 31.80812223 15.844149 35.67517453 17.38037109 39.54345703 C19.35154319 44.50483926 21.33846771 49.45974355 23.32957077 54.4131546 C24.85736727 58.2207424 26.37496972 62.03233095 27.88968658 65.84513855 C28.61815855 67.67423105 29.35023957 69.50189039 30.08596039 71.32807922 C31.11191765 73.87804216 32.12360005 76.43322257 33.13183594 78.99023438 C33.43929245 79.74568039 33.74674896 80.5011264 34.06352234 81.27946472 C35.49509059 84.95419166 36.36892655 87.25566839 35 91 C33 93 33 93 29.41796875 93.28125 C24.77385944 93.16381034 20.6962511 91.94949768 16.3125 90.5 C9.80853129 88.32418178 9.80853129 88.32418178 3 88 C2.46632812 89.0415625 1.93265625 90.083125 1.3828125 91.15625 C-23.87649339 139.97366621 -61.22848576 177.21177943 -114.42138672 194.20947266 C-148.63645247 204.69881018 -148.63645247 204.69881018 -159.953125 199.3203125 C-169.04989919 194.42515121 -169.04989919 194.42515121 -172 190 C-172.125 187.625 -172.125 187.625 -171 185 C-166.07067061 181.24195093 -160.30916215 178.51375262 -154.8125 175.6875 C-147.3194437 171.7695994 -140.11247752 167.58207687 -133 163 C-132.39414063 162.61199219 -131.78828125 162.22398437 -131.1640625 161.82421875 C-118.03690804 153.38533374 -106.33086243 143.70416399 -95 133 C-94.13246094 132.18660156 -93.26492187 131.37320313 -92.37109375 130.53515625 C-77.30813494 115.99079696 -57.786711 91.39336597 -55 70 C-55.94230469 69.89558594 -56.88460937 69.79117188 -57.85546875 69.68359375 C-62.8138098 68.97311879 -67.52851576 67.51335195 -72.3125 66.0625 C-73.21806641 65.79759766 -74.12363281 65.53269531 -75.05664062 65.25976562 C-75.92095703 65.00001953 -76.78527344 64.74027344 -77.67578125 64.47265625 C-78.8500769 64.12086304 -78.8500769 64.12086304 -80.0480957 63.76196289 C-82 63 -82 63 -84 61 C-84.4921875 58.65625 -84.4921875 58.65625 -84 56 C-82.05437098 54.22328411 -80.3164296 52.90970363 -78.125 51.5 C-76.83246049 50.62498587 -75.5408379 49.7486162 -74.25 48.87109375 C-73.5590625 48.40815918 -72.868125 47.94522461 -72.15625 47.46826172 C-68.41566679 44.92117528 -64.77919706 42.23126906 -61.125 39.5625 C-55.46966594 35.46127615 -49.7719919 31.43521965 -44 27.5 C-32.65166285 19.75828889 -21.36990229 11.8406291 -10.62890625 3.26953125 C-6.85961485 0.33183411 -4.78112975 -0.59764122 0 0 Z " fill="#3D4ED0" transform="translate(196,18)"/>
<path d="M0 0 C7.94437645 2.47082119 15.50061673 5.68713072 23.125 9 C24.37355009 9.5394048 25.62224722 10.07846939 26.87109375 10.6171875 C29.23316927 11.63711699 31.59407991 12.65975002 33.95361328 13.68554688 C36.35596051 14.72211022 38.76667778 15.72682808 41.1875 16.71875 C44.5901937 18.26886602 46.58909768 20.16364433 49 23 C50.18585363 26.55756088 50.18093271 29.81512804 50.203125 33.51953125 C50.20882507 34.25572189 50.21452515 34.99191254 50.22039795 35.75041199 C50.22983756 37.30795866 50.23637781 38.8655252 50.24023438 40.4230957 C50.24992231 42.79349086 50.28094675 45.16301203 50.3125 47.53320312 C50.31903241 49.04947404 50.32428195 50.56575113 50.328125 52.08203125 C50.3466452 53.13702568 50.3466452 53.13702568 50.36553955 54.21333313 C50.34461937 58.88776392 49.5209816 62.06206152 47 66 C45.2019043 67.64794922 45.2019043 67.64794922 43.13671875 68.9296875 C42.3379834 69.4256543 41.53924805 69.92162109 40.71630859 70.43261719 C36.06807936 73.11476995 31.3621987 75.67591154 26.6138916 78.17633057 C24.13142127 79.48367747 21.65459911 80.80156834 19.17739868 82.11886597 C17.91755564 82.78874364 16.65744465 83.45811764 15.39706421 84.12698364 C9.82554411 87.08533477 4.28292569 90.09508877 -1.25 93.125 C-6.81068672 96.16933556 -12.37471509 99.20639365 -17.95703125 102.2109375 C-27.80516508 107.51390011 -37.61080313 112.87026683 -47.3125 118.4375 C-48.18358398 118.93540039 -49.05466797 119.43330078 -49.95214844 119.94628906 C-53.47562865 121.96302686 -56.99175388 123.98603629 -60.46875 126.08203125 C-61.4071875 126.63246094 -62.345625 127.18289063 -63.3125 127.75 C-64.05113281 128.19859375 -64.78976563 128.6471875 -65.55078125 129.109375 C-70.68264832 130.97550848 -74.73657203 130.49170526 -79.68359375 128.56640625 C-80.94364769 127.9150974 -82.19472757 127.24620743 -83.4375 126.5625 C-84.12287842 126.20269043 -84.80825684 125.84288086 -85.5144043 125.47216797 C-87.68427385 124.3291975 -89.84180822 123.16483895 -92 122 C-93.38182153 121.27025585 -94.76462487 120.54236759 -96.1484375 119.81640625 C-98.95402061 118.34219685 -101.75441997 116.85881446 -104.55078125 115.3671875 C-107.68829456 113.69469106 -110.83202185 112.03463637 -113.98046875 110.3828125 C-114.81731201 109.94372559 -115.65415527 109.50463867 -116.51635742 109.05224609 C-118.11639734 108.21329859 -119.71679323 107.37502948 -121.31762695 106.53759766 C-126.58999596 103.77039235 -131.80669655 100.91279254 -137 98 C-137 97.01 -137 96.02 -137 95 C-136.28682617 94.79955078 -135.57365234 94.59910156 -134.83886719 94.39257812 C-78.35552446 78.39954176 -34.62903104 50.51084363 -1 2 C-0.67 1.34 -0.34 0.68 0 0 Z " fill="#F47C1A" transform="translate(198,133)"/>
<path d="M0 0 C1.61230469 1.09692383 1.61230469 1.09692383 3 3 C3.57026741 7.36263185 3.47248336 11.74609119 3.44604492 16.14135742 C3.43756852 18.29509097 3.46623678 20.44614023 3.49804688 22.59960938 C3.49966006 23.97916588 3.4990791 25.35872703 3.49609375 26.73828125 C3.49794678 27.98649658 3.4997998 29.23471191 3.50170898 30.52075195 C2.90185969 34.68058272 1.6640776 36.7760842 -1 40 C-3.14038086 41.59228516 -3.14038086 41.59228516 -5.46484375 42.7890625 C-6.3357666 43.24893555 -7.20668945 43.70880859 -8.10400391 44.18261719 C-9.03905762 44.65860352 -9.97411133 45.13458984 -10.9375 45.625 C-12.94502212 46.68297833 -14.95150964 47.74292185 -16.95703125 48.8046875 C-17.9723291 49.33803711 -18.98762695 49.87138672 -20.03369141 50.42089844 C-24.45083008 52.77234312 -28.7900533 55.25110547 -33.125 57.75 C-33.9708667 58.2356543 -34.8167334 58.72130859 -35.68823242 59.22167969 C-37.48496151 60.25349423 -39.28125249 61.28607197 -41.07714844 62.31933594 C-46.63026185 65.51242253 -52.18980012 68.69427638 -57.75 71.875 C-58.33921234 72.21229126 -58.92842468 72.54958252 -59.53549194 72.89709473 C-69.18106953 78.41714327 -78.86335428 83.86867374 -88.59155273 89.2421875 C-94.00591818 92.24953396 -99.18557857 95.40428122 -104.3125 98.875 C-110.33672506 102.57605316 -115.06083366 103.64730517 -122 102 C-127.64395045 99.86322244 -132.77308919 96.99751526 -138 94 C-138.92586914 93.47422363 -139.85173828 92.94844727 -140.80566406 92.40673828 C-146.8045803 88.99336077 -152.77714873 85.5360137 -158.74029541 82.06059265 C-165.18645244 78.30514422 -171.65172506 74.58347551 -178.125 70.875 C-178.99313828 70.37666153 -178.99313828 70.37666153 -179.8788147 69.86825562 C-189.29870801 64.46513024 -198.81324207 59.25179154 -208.45166016 54.24755859 C-218.59368948 48.88325268 -218.59368948 48.88325268 -221 45 C-221.66835217 40.2756561 -221.60550897 35.63729103 -221.5 30.875 C-221.50257813 29.58722656 -221.50515625 28.29945313 -221.5078125 26.97265625 C-221.40933796 17.56833761 -221.40933796 17.56833761 -219.63671875 15.10717773 C-218 14 -218 14 -215.34375 14.04296875 C-211.04804665 15.27246328 -207.40730205 17.17252459 -203.5 19.3125 C-202.67395264 19.7561792 -201.84790527 20.1998584 -200.99682617 20.65698242 C-198.32598097 22.09520671 -195.66251015 23.54641078 -193 25 C-191.23575126 25.95846988 -189.47142831 26.91680318 -187.70703125 27.875 C-184.05032632 29.86423682 -180.3972516 31.85997681 -176.74609375 33.859375 C-169.80029536 37.66078363 -162.8335057 41.42321014 -155.86767578 45.18774414 C-150.94906985 47.84926989 -146.03872911 50.52428461 -141.14453125 53.23046875 C-140.22365723 53.73956787 -139.3027832 54.24866699 -138.35400391 54.77319336 C-136.61931783 55.73392547 -134.88585061 56.69686276 -133.15380859 57.66235352 C-132.38504395 58.08830811 -131.6162793 58.5142627 -130.82421875 58.953125 C-130.15479248 59.32598633 -129.48536621 59.69884766 -128.7956543 60.08300781 C-123.90513177 62.58046568 -119.35327104 62.89568348 -114 62 C-108.70235559 59.87142144 -103.89049336 56.91789791 -99 54 C-96.9820211 52.81077314 -94.96377132 51.62200586 -92.9453125 50.43359375 C-88.92498398 48.05988285 -84.91010003 45.67748062 -80.90039062 43.28588867 C-72.50741847 38.28159052 -64.05431184 33.3859924 -55.58105469 28.51879883 C-49.20329162 24.85366835 -42.84660026 21.15555702 -36.50585938 17.42675781 C-28.49822098 12.72462769 -20.47591707 8.05264646 -12.3125 3.625 C-11.63566162 3.24939941 -10.95882324 2.87379883 -10.26147461 2.48681641 C-6.75049778 0.61820906 -3.99588393 -0.74179281 0 0 Z " fill="#3C3F48" transform="translate(245,213)"/>
<path d="M0 0 C0.33 0.99 0.66 1.98 1 3 C0.67 3.66 0.34 4.32 0 5 C-0.66 5 -1.32 5 -2 5 C-2.12375 5.61875 -2.2475 6.2375 -2.375 6.875 C-3 9 -3 9 -5 11 C-5.99 10.67 -6.98 10.34 -8 10 C-5.36 6.7 -2.72 3.4 0 0 Z " fill="#F48138" transform="translate(187,149)"/>
<path d="M0 0 C1.258125 -0.020625 2.51625 -0.04125 3.8125 -0.0625 C4.52019531 -0.07410156 5.22789062 -0.08570312 5.95703125 -0.09765625 C8 0 8 0 11 1 C11 1.66 11 2.32 11 3 C12.65 3.33 14.3 3.66 16 4 C12.06322574 5.31225809 10.2205738 4.3393954 6.3125 3.0625 C5.13300781 2.68222656 3.95351562 2.30195312 2.73828125 1.91015625 C1.83464844 1.60980469 0.93101563 1.30945313 0 1 C0 0.67 0 0.34 0 0 Z " fill="#6B6ADB" transform="translate(124,83)"/>
<path d="M0 0 C0.33 0.99 0.66 1.98 1 3 C0.0479279 4.00596297 -0.91187346 5.00461563 -1.875 6 C-2.40867188 6.556875 -2.94234375 7.11375 -3.4921875 7.6875 C-5 9 -5 9 -7 9 C-5.44499019 5.18315774 -2.96404505 2.80804268 0 0 Z " fill="#F37626" transform="translate(169,170)"/>
<path d="M0 0 C0.66 0 1.32 0 2 0 C2.5345256 1.24420647 3.05208611 2.49570936 3.5625 3.75 C3.85253906 4.44609375 4.14257812 5.1421875 4.44140625 5.859375 C5.07831803 8.30012784 4.80248831 9.6403655 4 12 C3.67 12 3.34 12 3 12 C2.49440092 10.56445975 1.9957251 9.1264798 1.5 7.6875 C1.2215625 6.88699219 0.943125 6.08648437 0.65625 5.26171875 C0 3 0 3 0 0 Z " fill="#5450D4" transform="translate(227,97)"/>
<path d="M0 0 C0.66 0 1.32 0 2 0 C1.45773019 3.79588866 -0.20127563 5.47211993 -3 8 C-3.66 7.67 -4.32 7.34 -5 7 C-4.21654285 5.82780457 -3.42297164 4.66236332 -2.625 3.5 C-2.18414062 2.8503125 -1.74328125 2.200625 -1.2890625 1.53125 C-0.65097656 0.77328125 -0.65097656 0.77328125 0 0 Z " fill="#F37B2D" transform="translate(193,141)"/>
<path d="M0 0 C0.53625 0.2475 1.0725 0.495 1.625 0.75 C-3.79038462 4.81153846 -3.79038462 4.81153846 -6.75 4.5 C-7.28625 4.2525 -7.8225 4.005 -8.375 3.75 C-2.95961538 -0.31153846 -2.95961538 -0.31153846 0 0 Z " fill="#4D4DD1" transform="translate(74.375,175.25)"/>
<path d="M0 0 C2.875 -0.125 2.875 -0.125 6 0 C6.66 0.66 7.32 1.32 8 2 C7.67 2.99 7.34 3.98 7 5 C7 4.34 7 3.68 7 3 C4.36 3 1.72 3 -1 3 C-0.67 2.01 -0.34 1.02 0 0 Z " fill="#514CD1" transform="translate(190,18)"/>
<path d="M0 0 C0.99 0 1.98 0 3 0 C3.33 1.98 3.66 3.96 4 6 C3.01 6 2.02 6 1 6 C0.67 4.02 0.34 2.04 0 0 Z " fill="#5657D5" transform="translate(24,204)"/>
</svg>
